<?xml version="1.0" standalone="no"?>
<!DOCTYPE svg PUBLIC "-//W3C//DTD SVG 20010904//EN"
 "http://www.w3.org/TR/2001/REC-SVG-20010904/DTD/svg10.dtd">
<svg version="1.0" xmlns="http://www.w3.org/2000/svg"
 width="183.000000pt" height="167.000000pt" viewBox="0 0 183.000000 167.000000"
 preserveAspectRatio="xMidYMid meet">

<g transform="translate(0.000000,167.000000) scale(0.100000,-0.100000)"
fill="#000000" stroke="none">
<path d="M208 1634 c-3 -5 -20 -54 -38 -109 -27 -85 -33 -120 -37 -232 -6
-142 0 -181 44 -293 52 -131 158 -249 302 -335 39 -23 67 -45 64 -49 -4 -4 1
-4 11 0 14 5 17 4 12 -5 -4 -6 -4 -11 1 -10 24 4 45 -3 63 -21 11 -11 23 -20
28 -21 4 -1 23 -9 42 -18 43 -22 137 -55 210 -75 79 -21 262 -57 266 -53 5 4
-128 73 -133 70 -2 -2 -11 4 -20 12 -10 9 -74 52 -143 97 -97 64 -153 110
-250 208 -69 69 -141 150 -161 180 -19 30 -50 77 -67 105 -69 105 -128 255
-152 380 -8 39 -18 75 -23 82 -5 7 -6 21 -3 31 7 21 -8 71 -16 56z"/>
<path d="M1570 1473 c0 -4 7 -30 15 -57 24 -80 29 -201 11 -284 -27 -128 -83
-239 -194 -387 -37 -49 -37 -49 -7 -28 129 92 294 289 287 343 0 3 4 11 10 17
6 7 13 41 15 77 7 79 -22 175 -78 258 -38 55 -59 77 -59 61z"/>
<path d="M1435 594 c-130 -30 -172 -36 -227 -31 -82 7 -86 -8 -14 -57 46 -31
109 -35 177 -10 60 21 216 54 260 54 20 0 58 -7 85 -15 l49 -14 -45 38 c-24
22 -57 42 -73 45 -48 10 -148 5 -212 -10z"/>
<path d="M66 461 c-4 -6 -3 -17 2 -24 5 -7 12 -25 16 -40 4 -16 39 -60 79
-100 102 -102 174 -135 322 -144 101 -6 226 11 385 53 120 32 222 66 216 71
-2 3 -52 -3 -110 -11 -190 -28 -456 -16 -597 28 -25 8 -73 28 -107 45 -34 17
-65 31 -68 30 -3 0 -12 8 -21 18 -8 10 -11 11 -7 3 7 -13 6 -13 -12 0 -10 8
-27 23 -37 35 -10 11 -16 13 -12 5 4 -8 -4 -2 -17 14 -17 21 -27 26 -32 17z"/>
</g>
</svg>
