<?xml version="1.0" standalone="no"?>
<!DOCTYPE svg PUBLIC "-//W3C//DTD SVG 20010904//EN"
 "http://www.w3.org/TR/2001/REC-SVG-20010904/DTD/svg10.dtd">
<svg version="1.0" xmlns="http://www.w3.org/2000/svg"
 width="566.000000pt" height="441.000000pt" viewBox="0 0 566.000000 441.000000"
 preserveAspectRatio="xMidYMid meet">

<g transform="translate(0.000000,441.000000) scale(0.100000,-0.100000)"
fill="#000000" stroke="none">
<path d="M727 2893 c-91 -278 -62 -499 89 -697 46 -60 165 -170 180 -166 4 1
11 -5 16 -14 5 -9 13 -14 18 -11 4 3 11 -2 14 -11 3 -8 10 -13 15 -10 13 8 42
-4 35 -15 -3 -5 2 -6 10 -3 9 4 18 -1 22 -10 3 -9 11 -13 16 -10 6 4 18 -2 27
-13 33 -42 375 -151 527 -169 l49 -5 -100 53 c-392 210 -651 479 -789 818 -32
78 -62 193 -72 275 -13 111 -18 110 -57 -12z"/>
<path d="M2120 2823 c0 -10 7 -40 16 -68 24 -73 22 -241 -4 -325 -37 -124 -87
-210 -216 -380 -21 -28 50 29 132 105 233 217 271 403 126 615 -26 39 -49 70
-51 70 -2 0 -3 -8 -3 -17z"/>
<path d="M3665 1989 l-126 -250 38 3 c33 3 40 8 55 39 9 20 29 46 43 57 14 11
21 22 15 24 -12 4 94 227 126 266 l19 23 104 -206 c104 -204 105 -205 138
-205 18 0 33 2 33 5 0 2 -54 115 -120 250 l-121 245 -39 0 -40 0 -125 -251z"/>
<path d="M5072 2208 c-40 -67 -222 -439 -222 -454 0 -11 8 -14 32 -12 30 3 35
11 126 188 52 102 100 193 107 204 12 17 18 10 59 -70 160 -314 163 -319 185
-322 58 -9 55 -1 -71 252 l-123 245 -37 1 c-31 0 -39 -5 -56 -32z"/>
<path d="M2920 1987 l0 -243 35 -2 35 -3 0 191 c0 157 2 190 14 190 8 0 61
-51 118 -112 246 -268 252 -273 296 -257 22 8 22 10 22 244 l0 235 -35 0 -35
0 0 -182 c0 -101 -4 -188 -8 -195 -5 -8 -43 28 -112 104 -234 259 -249 273
-291 273 l-39 0 0 -243z"/>
<path d="M4220 1984 l0 -246 23 6 c12 3 28 6 35 6 9 0 12 55 12 240 l0 240
-35 0 -35 0 0 -246z"/>
<path d="M4670 2123 c0 -60 -2 -170 -3 -246 l-2 -137 33 0 32 0 0 245 0 245
-30 0 -30 0 0 -107z"/>
<path d="M4405 2175 c13 -24 26 -68 29 -97 9 -74 36 -188 52 -219 21 -41 65
-90 75 -83 6 3 5 12 -2 20 -7 8 -23 76 -35 151 -26 155 -58 234 -104 258 -16
8 -31 15 -33 15 -2 0 6 -20 18 -45z"/>
<path d="M2714 2105 c-8 -19 11 -65 26 -65 15 0 8 72 -7 78 -7 2 -16 -4 -19
-13z"/>
<path d="M2730 1865 l0 -125 30 0 30 0 0 125 0 125 -30 0 -30 0 0 -125z"/>
<path d="M2074 1959 c-39 -4 -96 -14 -127 -23 -88 -26 -195 -31 -239 -13 -21
9 -38 12 -38 8 0 -21 84 -91 117 -97 41 -8 145 0 165 12 7 5 18 9 23 11 6 1
37 10 70 19 78 23 200 24 242 2 31 -15 31 -15 20 3 -6 10 -17 19 -24 19 -7 0
-13 4 -13 10 0 15 -48 42 -88 49 -20 4 -69 4 -108 0z"/>
<path d="M3734 1875 c-18 -13 -18 -14 -1 -15 10 0 36 -9 59 -21 44 -23 110
-22 132 2 8 9 8 10 -2 5 -7 -4 -35 4 -62 18 -56 29 -97 33 -126 11z"/>
<path d="M5026 1875 c-19 -15 -19 -15 3 -15 13 0 39 -10 58 -21 26 -17 45 -20
80 -16 48 5 77 22 42 24 -11 1 -38 11 -60 22 -46 24 -96 27 -123 6z"/>
<path d="M615 1791 c22 -62 34 -82 93 -144 99 -103 219 -150 382 -149 113 1
345 52 510 111 70 25 41 26 -94 5 -77 -13 -139 -15 -266 -11 -173 6 -265 22
-359 60 -62 25 -231 127 -251 152 -22 27 -29 16 -15 -24z"/>
</g>
</svg>
